<?xml version="1.0"?>
<svg xmlns="http://www.w3.org/2000/svg" xmlns:xlink="http://www.w3.org/1999/xlink" xmlns:svgjs="http://svgjs.com/svgjs" version="1.1" width="512" height="512" x="0" y="0" viewBox="0 0 512 512" style="enable-background:new 0 0 512 512" xml:space="preserve" class=""><g><g xmlns="http://www.w3.org/2000/svg"><path d="m356.016 16h-70.018l-120.005 90h70.017z" fill="#ff3131" data-original="#000000" style="" class=""/><path d="m477.012 16h-71.014l-120.005 90h70.017z" fill="#ff3131" data-original="#000000" style="" class=""/><path d="m405.991 106h106.009v-75c0-1.157-.41-2.179-.657-3.261z" fill="#ff3131" data-original="#000000" style="" class=""/><path d="m44.993 106h71.017l120.006-90h-70.018z" fill="#ff3131" data-original="#000000" style="" class=""/><path d="m0 481c0 8.291 6.709 15 15 15h482c8.291 0 15-6.709 15-15v-345h-512zm181-270c0-5.405 2.9-10.386 7.603-13.052s10.474-2.593 15.117.19l150 90c4.512 2.71 7.28 7.588 7.28 12.861s-2.769 10.151-7.28 12.861l-150 90c-4.646 2.782-10.419 2.854-15.117.19-4.703-2.664-7.603-7.645-7.603-13.05z" fill="#ff3131" data-original="#000000" style="" class=""/><path d="m15 16c-8.291 0-15 6.709-15 15v71.257l116.016-86.257z" fill="#ff3131" data-original="#000000" style="" class=""/><path d="m211 237.499v127.002l105.85-63.501z" fill="#ff3131" data-original="#000000" style="" class=""/></g></g></svg>
